<svg width="32" height="32" viewBox="0 0 32 32" fill="none" xmlns="http://www.w3.org/2000/svg">
<g clip-path="url(#clip0_1_802)">
<mask id="mask0_1_802" style="mask-type:luminance" maskUnits="userSpaceOnUse" x="0" y="0" width="32" height="32">
<path d="M32 16C32 7.16344 24.8366 0 16 0C7.16344 0 0 7.16344 0 16C0 24.8366 7.16344 32 16 32C24.8366 32 32 24.8366 32 16Z" fill="white"/>
</mask>
<g mask="url(#mask0_1_802)">
<path d="M32 16C32 7.16344 24.8366 0 16 0C7.16344 0 0 7.16344 0 16C0 24.8366 7.16344 32 16 32C24.8366 32 32 24.8366 32 16Z" fill="#7C7F83"/>
<path d="M-2.89476 16.5819C-2.48302 15.6304 -1.65679 14.7856 -0.798002 14.1195C0.508828 13.106 1.65394 11.7953 1.96128 10.1704C2.04343 9.736 2.11834 9.32183 2.17349 8.98358C2.39549 7.62205 4.99349 1.66973 13.3851 -0.00640054C20.1566 -1.35894 22.7827 1.76175 25.2078 3.98253C26.2944 4.97755 27.7501 5.36495 29.1342 5.86974C31.5949 6.76712 33.3707 8.55296 33.7429 10.4164C34.1487 12.448 33.2338 14.5023 32.2867 15.8069C31.9922 16.2126 31.7478 16.6547 31.5787 17.1266C30.7286 19.4993 28.8226 22.5249 28.135 23.5559C27.3747 24.6956 24.8722 28.6531 19.8056 29.6651C14.1056 30.8036 10.0735 28.8019 8.24839 27.8573C5.49392 26.4317 4.06915 25.893 2.51765 25.5443C0.966147 25.1956 0.997765 25.354 -1.09176 23.9602C-3.18129 22.5664 -3.90862 18.9248 -2.89476 16.5819Z" fill="#7C7F83"/>
<path d="M27.7279 7.48738C27.7076 7.34776 27.7237 7.20562 27.7745 7.07409C27.8253 6.94257 27.9093 6.8259 28.0187 6.7349C28.128 6.64391 28.2593 6.58152 28.4003 6.5535C28.5413 6.52547 28.6874 6.53273 28.8252 6.5746C30.1486 6.98461 32.5218 7.95696 32.8395 9.81473C33.2366 11.5452 32.9704 13.3542 32.0916 14.8976C31.5577 15.8119 28.1185 10.0865 27.7279 7.48738Z" fill="#242930"/>
<path d="M2.25802 14.7277C2.17416 14.567 2.05325 14.4274 1.90504 14.3201C1.75683 14.2129 1.58547 14.1409 1.40465 14.11C1.22383 14.0791 1.03863 14.0901 0.863916 14.1421C0.689204 14.1942 0.529844 14.2858 0.398654 14.4097C-0.513373 15.2543 -2.03252 16.9316 -1.90895 18.687C-1.92104 19.7859 -1.60063 20.8675 -0.988106 21.7951C-0.375586 22.7226 0.50155 23.4545 1.53238 23.8983C3.38429 24.6708 3.62855 17.2614 2.25802 14.7277Z" fill="#242930"/>
<path d="M19.3102 14.3281C18.917 14.2461 18.7321 13.0862 19.5339 11.3711C20.3356 9.65602 23.4261 9.97372 23.978 10.138C24.5299 10.3023 24.8933 11.8105 25.0373 12.3643C25.0581 12.4432 25.0559 12.526 25.0309 12.6033C25.0058 12.6806 24.959 12.7492 24.8958 12.8013C23.945 13.6259 19.6712 14.4035 19.3102 14.3281Z" fill="#242930"/>
<path d="M12.8268 12.8928C13.2441 12.9798 13.6199 14.1878 13.8068 14.857C13.8571 15.0316 13.8457 15.2173 13.7745 15.3837C13.7033 15.5502 13.5764 15.6876 13.4145 15.7736C11.7317 16.475 9.94498 16.9139 8.1189 17.0745C7.72573 16.9924 7.54081 15.8325 8.34259 14.1175C9.14437 12.4024 12.2268 12.7184 12.8268 12.8928Z" fill="#242930"/>
<path d="M5.63115 7.73209C5.63115 7.73209 8.63746 4.96303 11.0218 5.97633C11.6831 6.28789 12.4009 6.46556 13.1317 6.49859C13.4823 6.49924 13.8257 6.40687 14.1254 6.23129C14.7322 5.85281 15.2462 5.34837 15.6313 4.75322C17.0961 2.71001 21.1562 3.55748 21.1562 3.55748C27.2302 4.86622 27.9163 11.287 28.9388 13.0882C29.9612 14.8894 32.8013 15.163 29.959 18.7111C27.1166 22.2591 26.3966 25.2271 22.9551 26.7514C21.9811 27.2356 20.9489 27.6001 19.8816 27.8367V27.8367C18.8102 28.1753 17.6871 28.3364 16.5583 28.3135C12.7758 28.3424 10.7329 26.6965 6.34488 25.0931C1.95689 23.4897 4.28911 21.8239 4.17026 19.7858C4.05142 17.7476 1.15771 11.9137 5.63115 7.73209ZM24.7869 9.02959C24.1102 7.5379 23.1389 5.81284 21.5307 5.1334C20.751 4.83089 19.8992 4.76131 19.0835 4.93351C18.2678 5.1057 17.525 5.5119 16.9494 6.10051C16.3359 6.63537 15.9604 7.38442 15.902 8.18992C15.7268 10.2731 16.3767 13.257 17.6762 14.4531C18.6524 15.3525 20.7041 14.7495 21.8037 14.4962C22.6814 14.3029 25.2457 14.0524 25.7543 13.3811C26.4823 12.4608 25.1672 9.9356 24.7869 9.02959ZM12.604 25.0736C12.7246 25.1394 12.8408 25.2128 12.9516 25.2935C13.8423 25.901 14.8671 26.291 15.9397 26.4309C17.0123 26.5707 18.1011 26.4562 19.1143 26.097C19.2411 26.0466 19.3704 26.0025 19.5019 25.9651C21.6011 25.3448 23.3691 23.9556 24.4399 22.0851C24.4695 22.0327 24.5024 21.9821 24.5385 21.9338C25.0764 21.1621 23.1374 21.2649 20.9171 21.0306C20.4679 20.9817 20.0244 20.8891 19.5931 20.7542C18.9934 20.5871 18.3597 20.5856 17.7622 20.7498C17.1648 20.9141 16.627 21.2377 16.2086 21.6847C15.9095 22.002 15.585 22.2956 15.2382 22.5625C13.5148 23.7987 11.8394 24.6849 12.604 25.0736V25.0736ZM14.4517 17.1439C14.4254 17.2307 14.4193 17.3223 14.4338 17.4121C14.4483 17.5019 14.4831 17.5875 14.5356 17.6628C14.5881 17.7381 14.657 17.8011 14.7373 17.8472C14.8175 17.8933 14.9071 17.9214 14.9995 17.9293C15.6157 17.9768 16.2347 17.9176 16.828 17.7544C16.8939 17.7291 16.9623 17.7105 17.0322 17.6989C17.6203 17.548 18.1766 17.2986 18.6765 16.9617C18.7512 16.9076 18.8124 16.8376 18.8555 16.7569C18.8986 16.6762 18.9226 16.5869 18.9256 16.4956C18.9286 16.4042 18.9105 16.3132 18.8728 16.2293C18.835 16.1453 18.7786 16.0706 18.7076 16.0106C18.4456 15.7276 18.1276 15.4998 17.7732 15.3414C17.4188 15.1829 17.0356 15.0972 16.6474 15.0895C16.5046 15.1095 16.3638 15.1403 16.2262 15.1817L16.006 15.2339C15.8835 15.2509 15.764 15.2838 15.6506 15.3316C15.3367 15.539 15.0689 15.8061 14.863 16.1174C14.6571 16.4286 14.5173 16.7776 14.4517 17.1439ZM5.51233 14.2385C5.64978 15.2248 5.91981 18.023 7.03925 18.4367C7.85557 18.738 10.163 17.6728 11.0153 17.4005C12.0927 17.0525 14.1682 16.5363 14.5056 15.2809C14.8918 13.8719 14.2053 11.6252 13.2177 9.93766C12.7788 9.1786 12.117 8.56523 11.319 8.17811C10.5211 7.79098 9.62441 7.64823 8.74684 7.76859C8.22224 7.83126 7.718 8.00157 7.26699 8.26844C6.81598 8.5353 6.42831 8.89273 6.12921 9.31745C5.13123 10.6887 5.23436 12.6418 5.47534 14.2554L5.51233 14.2385Z" fill="#242930"/>
<path d="M15.8704 23.8651C16.055 23.9036 16.8261 23.7756 18.0056 23.6208C18.2571 23.5774 18.8189 23.4484 19.0573 23.3599C20.1238 22.9442 20.8766 22.6675 21.0311 22.5688C21.1857 22.4701 21.4477 22.2916 21.0408 22.9637C20.634 23.6358 20.2684 24.1622 19.6768 24.5032C19.3015 24.7197 18.7234 24.8923 18.286 24.8919C17.5708 24.8954 16.6558 24.6496 16.0278 24.3236C15.3999 23.9976 15.5604 23.8659 15.8704 23.8651Z" fill="#242930"/>
</g>
</g>
<defs>
<clipPath id="clip0_1_802">
<rect width="32" height="32" fill="white"/>
</clipPath>
</defs>
</svg>
