<svg width="101" height="17" viewBox="0 0 101 17" fill="none" xmlns="http://www.w3.org/2000/svg">
<g clip-path="url(#clip0_3_67)">
<path d="M5.70436 6.72994C5.66467 6.71524 5.63044 6.68875 5.60626 6.65403C5.58209 6.61932 5.56913 6.57804 5.56913 6.53574C5.56913 6.49345 5.58209 6.45217 5.60626 6.41746C5.63044 6.38274 5.66467 6.35625 5.70436 6.34155C6.89458 5.91056 8.9811 4.53738 9.0437 0.206657C9.04418 0.179729 9.03929 0.152974 9.02932 0.127951C9.01936 0.102928 9.00451 0.0801367 8.98564 0.0609039C8.96677 0.0416712 8.94425 0.0263816 8.91941 0.0159255C8.89457 0.0054694 8.8679 5.5821e-05 8.84094 0L6.12983 0C6.07777 4.75083e-05 6.02772 0.0200533 5.98999 0.0558911C5.95227 0.091729 5.92975 0.140666 5.92707 0.192608C5.88126 1.08767 5.37551 4.86368 0.146056 6.3411C0.105624 6.35187 0.0696933 6.37527 0.0435022 6.40788C0.0173112 6.44049 0.00222878 6.4806 0.000453591 6.52238H0C0 6.52736 0 6.53189 0 6.53642C0 6.54096 0 6.54594 0 6.55093C0.00177519 6.5927 0.0168576 6.63281 0.0430486 6.66542C0.0692397 6.69803 0.10517 6.72143 0.145603 6.7322C5.37505 8.20962 5.88081 11.9838 5.92662 12.8807C5.92929 12.9326 5.95181 12.9816 5.98954 13.0174C6.02727 13.0532 6.07732 13.0733 6.12938 13.0733H8.84049C8.86744 13.0732 8.89412 13.0678 8.91896 13.0574C8.9438 13.0469 8.96631 13.0316 8.98518 13.0124C9.00405 12.9932 9.0189 12.9704 9.02887 12.9453C9.03884 12.9203 9.04372 12.8936 9.04324 12.8666C8.9811 8.53365 6.89458 7.16047 5.70436 6.72994Z" fill="#242930"/>
<path d="M27.8777 13.0688H24.9811V8.55996C24.9811 8.16386 24.8922 7.87684 24.7144 7.69889C24.6351 7.61483 24.5394 7.54784 24.4332 7.50202C24.3271 7.4562 24.2127 7.43251 24.0971 7.43241C23.853 7.43241 23.5939 7.53906 23.3196 7.75236C23.045 7.96585 22.834 8.25028 22.7095 8.57491V13.0683H19.8129V5.05676H22.4201V6.24504C22.7047 5.80816 23.1035 5.47582 23.6167 5.24801C24.1299 5.02021 24.7371 4.906 25.4383 4.9054C25.9872 4.9054 26.4217 5.00434 26.742 5.20224C27.0446 5.38249 27.2964 5.63669 27.4736 5.94094C27.6404 6.23281 27.7516 6.55304 27.8015 6.8854C27.8497 7.18778 27.8751 7.49333 27.8777 7.7995V13.0688Z" fill="#242930"/>
<path d="M31.1553 13.0688L28.4569 5.05676H31.4297L32.863 10.7992L34.3109 5.05676H37.0093L34.3109 13.0688H31.1553Z" fill="#242930"/>
<path d="M41.4305 13.221C40.7293 13.221 40.1042 13.1118 39.5554 12.8933C39.0383 12.6959 38.5684 12.3924 38.176 12.0024C37.809 11.6327 37.5213 11.1921 37.3305 10.7076C37.1369 10.2179 37.0387 9.69588 37.0411 9.16943C37.038 8.60883 37.1333 8.05202 37.3228 7.52434C37.5035 7.01844 37.7893 6.55649 38.1615 6.16883C38.5505 5.7705 39.0176 5.45669 39.5336 5.24703C40.0779 5.01862 40.7105 4.90442 41.4314 4.90442C42.1426 4.90442 42.7728 5.01862 43.322 5.24703C43.8392 5.45557 44.3084 5.76739 44.7009 6.16339C45.0702 6.54093 45.3562 6.99156 45.5405 7.48627C45.7289 7.99036 45.8245 8.52437 45.8226 9.06248C45.8226 9.2152 45.8149 9.36974 45.7999 9.52746C45.785 9.68517 45.7668 9.8243 45.7464 9.94621H40.1219C40.1521 10.3725 40.3097 10.6796 40.5945 10.8676C40.8692 11.0526 41.1932 11.1508 41.5244 11.1494C41.8345 11.1508 42.1404 11.0776 42.4162 10.936C42.6956 10.7943 42.8811 10.5964 42.9727 10.3423L45.4271 11.0429C45.1017 11.6822 44.6013 12.2052 43.9257 12.6119C43.2502 13.0186 42.4184 13.2216 41.4305 13.221ZM42.7114 8.20957C42.66 7.82375 42.5176 7.5192 42.2842 7.29593C42.0507 7.07265 41.7509 6.96086 41.3847 6.96056C41.0191 6.96056 40.7193 7.07235 40.4852 7.29593C40.2512 7.5195 40.1089 7.82405 40.0584 8.20957H42.7114Z" fill="#242930"/>
<path d="M52.2083 7.52297C51.6944 7.51697 51.1819 7.57791 50.6838 7.70425C50.2266 7.8251 49.8861 8.02828 49.6623 8.3138V13.0687H46.7652V5.05669H49.4178V6.57987C49.7021 6.04178 50.0553 5.62802 50.4774 5.33858C50.8763 5.05622 51.353 4.90452 51.8418 4.90441C51.9639 4.9006 52.0861 4.90575 52.2074 4.91982L52.2083 7.52297Z" fill="#242930"/>
<path d="M56.1876 13.0687C55.695 13.0744 55.2076 12.9676 54.7625 12.7565C54.3375 12.5539 53.9606 12.2632 53.6571 11.9036C53.3434 11.5274 53.1029 11.096 52.9481 10.6315C52.7763 10.1205 52.6912 9.58433 52.6963 9.04528C52.69 8.4802 52.7821 7.91833 52.9685 7.38478C53.1372 6.90195 53.3992 6.45694 53.7396 6.07505C54.0689 5.70962 54.4705 5.41642 54.9189 5.21398C55.3937 5.00228 55.9087 4.89576 56.4285 4.90173C57.0079 4.90173 57.5161 5.01593 57.953 5.24434C58.3873 5.47013 58.7472 5.81631 58.9895 6.24137V5.05672H61.5069V12.3377C61.5069 12.9671 61.39 13.5357 61.1563 14.0436C60.9276 14.5441 60.5888 14.9867 60.1652 15.3383C59.709 15.7096 59.1867 15.9913 58.6257 16.1686C58.0254 16.3662 57.3602 16.4651 56.6299 16.4654C55.7762 16.4654 55.0343 16.3334 54.4041 16.0693C53.7733 15.8054 53.2025 15.4168 52.7258 14.9268L54.2504 13.3429C54.5638 13.6294 54.9214 13.8633 55.3095 14.0359C55.7236 14.2241 56.1736 14.3203 56.6285 14.3177C56.8838 14.3189 57.1379 14.283 57.3828 14.2112C57.6167 14.1437 57.8333 14.0267 58.0179 13.8682C58.2091 13.6995 58.358 13.4882 58.4524 13.2514C58.5589 12.9976 58.6122 12.693 58.6125 12.3377V11.8197C58.3912 12.2344 58.041 12.5659 57.6146 12.7642C57.1676 12.9706 56.6801 13.0746 56.1876 13.0687V13.0687ZM57.2245 10.786C57.4959 10.7926 57.7635 10.7214 57.9956 10.5807C58.2137 10.4435 58.4195 10.2378 58.613 9.96346V8.52955C58.4867 8.18651 58.2667 7.8857 57.978 7.66123C57.6998 7.44823 57.4079 7.34173 57.1025 7.34173C56.9027 7.34072 56.7059 7.39046 56.5306 7.4863C56.3529 7.58266 56.1951 7.71184 56.0656 7.86698C55.9285 8.03347 55.825 8.22492 55.7608 8.43075C55.6888 8.65463 55.6528 8.88853 55.6542 9.12369C55.6542 9.62129 55.8015 10.0224 56.096 10.3269C56.3905 10.6315 56.7667 10.7845 57.2245 10.786Z" fill="#242930"/>
<path d="M66.9201 10.9451C67.9607 10.9451 68.8043 10.1022 68.8043 9.0625C68.8043 8.02279 67.9607 7.17993 66.9201 7.17993C65.8795 7.17993 65.0359 8.02279 65.0359 9.0625C65.0359 10.1022 65.8795 10.9451 66.9201 10.9451Z" fill="#EC0B43"/>
<path d="M18.5096 7.35802C18.326 6.86252 18.0403 6.41106 17.671 6.03288C17.2781 5.63827 16.8087 5.32799 16.2916 5.12106C15.7427 4.89265 15.1126 4.77844 14.401 4.77844C13.6792 4.77844 13.0464 4.89265 12.5027 5.12106C11.9883 5.32984 11.5217 5.64082 11.1311 6.03515C10.7615 6.4131 10.4757 6.86462 10.2924 7.36029C9.91623 8.37765 9.91623 9.49581 10.2924 10.5132C10.4757 11.0088 10.7615 11.4604 11.1311 11.8383C11.5219 12.2323 11.9885 12.5433 12.5027 12.7524C13.0471 12.9808 13.6798 13.095 14.401 13.095C15.1122 13.095 15.7424 12.9808 16.2916 12.7524C16.8087 12.5445 17.2781 12.2334 17.671 11.8383C18.0403 11.4601 18.326 11.0087 18.5096 10.5132C18.8858 9.49581 18.8858 8.37765 18.5096 7.36029V7.35802ZM14.401 10.8168C14.0283 10.8171 13.6639 10.7069 13.3538 10.5002C13.0438 10.2935 12.8021 9.99958 12.6593 9.65561C12.5164 9.31163 12.4789 8.93307 12.5515 8.5678C12.624 8.20253 12.8034 7.86696 13.0668 7.60354C13.3303 7.34012 13.666 7.16069 14.0316 7.08794C14.3971 7.01519 14.776 7.05239 15.1204 7.19484C15.4648 7.33728 15.7591 7.57858 15.9662 7.88819C16.1733 8.19781 16.2839 8.56184 16.2839 8.93423C16.2839 9.43329 16.0855 9.91192 15.7325 10.2649C15.3794 10.6179 14.9005 10.8164 14.401 10.8168V10.8168Z" fill="#242930"/>
<path fill-rule="evenodd" clip-rule="evenodd" d="M66.9201 13.221C66.1986 13.221 65.566 13.1068 65.0223 12.8784C64.5077 12.6696 64.0409 12.3586 63.6501 11.9643C63.2808 11.5862 62.9951 11.1347 62.8114 10.6392C62.4353 9.62184 62.4353 8.50368 62.8114 7.48632C62.9954 6.99162 63.2811 6.54096 63.6501 6.16345C64.0409 5.76916 64.5077 5.45819 65.0223 5.24935C65.5666 5.02094 66.1992 4.90674 66.9201 4.90674C67.6313 4.90674 68.2615 5.02094 68.8106 5.24935C69.3279 5.457 69.7973 5.76806 70.19 6.16345C70.5593 6.54163 70.8451 6.99308 71.0287 7.48859C71.4049 8.50595 71.4049 9.6241 71.0287 10.6415C70.8448 11.1362 70.5591 11.5868 70.19 11.9643C69.7971 12.3598 69.3274 12.6709 68.8097 12.8784C68.2615 13.1068 67.6316 13.221 66.9201 13.221ZM67.2997 7.21819C68.1584 7.3937 68.8043 8.15273 68.8043 9.06251C68.8043 9.87063 68.2947 10.5598 67.579 10.8267C67.4314 10.8818 67.2751 10.9189 67.1127 10.9354C67.0493 10.9418 66.9851 10.9451 66.9201 10.9451C66.9201 10.9451 66.92 10.9451 66.92 10.9451C66.7899 10.9451 66.6629 10.9319 66.5403 10.9068C65.6817 10.7313 65.0358 9.97226 65.0358 9.06251C65.0358 8.2398 65.564 7.54034 66.3001 7.28421C66.4942 7.21665 66.7028 7.17994 66.92 7.17994M66.9201 7.17994C67.0502 7.17995 67.1771 7.19312 67.2997 7.21819Z" fill="#242930"/>
<rect width="25.3868" height="15.9662" transform="translate(76.5668 -0.0541992)" fill="#EC0B43"/>
<path d="M83.5963 11.0111C83.1088 11.0111 82.6815 10.9235 82.3144 10.7482C81.9529 10.5674 81.6489 10.3291 81.4024 10.0333C81.1613 9.73202 80.9778 9.39786 80.8518 9.03084C80.7313 8.65833 80.6711 8.27761 80.6711 7.88868C80.6711 7.49974 80.7313 7.11902 80.8518 6.74652C80.9778 6.37402 81.1613 6.03986 81.4024 5.74405C81.6489 5.44276 81.9529 5.20447 82.3144 5.02918C82.6815 4.85388 83.1088 4.76623 83.5963 4.76623C83.9962 4.76623 84.3386 4.81827 84.6234 4.92236C84.9137 5.02644 85.1548 5.16065 85.3465 5.32499C85.5437 5.48385 85.6998 5.65366 85.8149 5.83444C85.9354 6.01521 86.023 6.18777 86.0778 6.35211C86.1381 6.51645 86.1792 6.65066 86.2011 6.75474C86.223 6.85334 86.2339 6.90264 86.2339 6.90264H85.2726C85.2726 6.90264 85.2616 6.86156 85.2397 6.77939C85.2233 6.69174 85.1822 6.58492 85.1164 6.45893C85.0562 6.33293 84.9631 6.20968 84.8371 6.08916C84.7165 5.96317 84.5549 5.85909 84.3523 5.77692C84.155 5.68927 83.9058 5.64545 83.6045 5.64545C83.2813 5.64545 82.9965 5.70844 82.7499 5.83444C82.5089 5.96043 82.3062 6.13025 82.1419 6.34389C81.9776 6.55753 81.8543 6.79856 81.7721 7.06698C81.6954 7.3354 81.6571 7.6093 81.6571 7.88868C81.6571 8.16806 81.6954 8.44195 81.7721 8.71038C81.8543 8.97332 81.9776 9.21435 82.1419 9.43347C82.3062 9.64711 82.5089 9.81693 82.7499 9.94292C82.9965 10.0689 83.2813 10.1319 83.6045 10.1319C83.9058 10.1319 84.155 10.0908 84.3523 10.0087C84.5549 9.92101 84.7165 9.81419 84.8371 9.68819C84.9631 9.5622 85.0562 9.43621 85.1164 9.31021C85.1822 9.18422 85.2233 9.08014 85.2397 8.99797C85.2616 8.91032 85.2726 8.8665 85.2726 8.8665H86.2339C86.2339 8.8665 86.223 8.91854 86.2011 9.02262C86.1792 9.1267 86.1381 9.26091 86.0778 9.42525C86.023 9.58411 85.9354 9.75667 85.8149 9.94292C85.6998 10.1237 85.5437 10.2962 85.3465 10.4606C85.1548 10.6194 84.9137 10.7509 84.6234 10.855C84.3386 10.9591 83.9962 11.0111 83.5963 11.0111ZM86.483 10.929L88.6029 4.8484H89.8355L91.9637 10.929H90.953L90.4846 9.56494H87.962L87.4936 10.929H86.483ZM88.2496 8.71038H90.197L89.2274 5.87552L88.2496 8.71038ZM92.7531 10.929V4.8484H93.7145V10.0908H96.7876V10.929H92.7531Z" fill="#FDE6EC"/>
</g>
<defs>
<clipPath id="clip0_3_67">
<rect width="101" height="16.5" fill="white"/>
</clipPath>
</defs>
</svg>
