<svg width="56" height="56" viewBox="0 0 56 56" fill="none" xmlns="http://www.w3.org/2000/svg">
<path d="M15.6824 35.0379C14.5363 35.0379 13.5318 34.8318 12.669 34.4198C11.8191 33.9948 11.1044 33.4346 10.5249 32.7393C9.95832 32.031 9.52692 31.2455 9.23074 30.3827C8.94743 29.507 8.80578 28.612 8.80578 27.6977C8.80578 26.7834 8.94743 25.8884 9.23074 25.0127C9.52692 24.1371 9.95832 23.3515 10.5249 22.6561C11.1044 21.9479 11.8191 21.3877 12.669 20.9756C13.5318 20.5636 14.5363 20.3575 15.6824 20.3575C16.6224 20.3575 17.4273 20.4798 18.0969 20.7245C18.7794 20.9692 19.346 21.2847 19.7967 21.671C20.2603 22.0445 20.6273 22.4437 20.8978 22.8686C21.1811 23.2936 21.3871 23.6992 21.5159 24.0856C21.6575 24.4719 21.7541 24.7874 21.8056 25.0321C21.8572 25.2638 21.8829 25.3797 21.8829 25.3797H19.6229C19.6229 25.3797 19.5971 25.2832 19.5456 25.09C19.507 24.884 19.4104 24.6328 19.2559 24.3367C19.1142 24.0405 18.8953 23.7507 18.5991 23.4674C18.3158 23.1713 17.9359 22.9266 17.4595 22.7334C16.9959 22.5274 16.41 22.4244 15.7017 22.4244C14.9419 22.4244 14.2723 22.5724 13.6928 22.8686C13.1262 23.1648 12.6497 23.564 12.2634 24.0662C11.8771 24.5685 11.5873 25.1351 11.3942 25.7661C11.2139 26.3971 11.1237 27.0409 11.1237 27.6977C11.1237 28.3545 11.2139 28.9983 11.3942 29.6293C11.5873 30.2475 11.8771 30.8141 12.2634 31.3292C12.6497 31.8314 13.1262 32.2306 13.6928 32.5268C14.2723 32.823 14.9419 32.971 15.7017 32.971C16.41 32.971 16.9959 32.8745 17.4595 32.6813C17.9359 32.4753 18.3158 32.2242 18.5991 31.928C18.8953 31.6318 19.1142 31.3356 19.2559 31.0394C19.4104 30.7432 19.507 30.4986 19.5456 30.3054C19.5971 30.0994 19.6229 29.9963 19.6229 29.9963H21.8829C21.8829 29.9963 21.8572 30.1187 21.8056 30.3633C21.7541 30.608 21.6575 30.9235 21.5159 31.3098C21.3871 31.6833 21.1811 32.0889 20.8978 32.5268C20.6273 32.9517 20.2603 33.3574 19.7967 33.7437C19.346 34.1171 18.7794 34.4262 18.0969 34.6709C17.4273 34.9156 16.6224 35.0379 15.6824 35.0379ZM22.4683 34.8447L27.4519 20.5507H30.3493L35.3522 34.8447H32.9763L31.8753 31.6382H25.9452L24.8442 34.8447H22.4683ZM26.6213 29.6293H31.1992L28.9199 22.9652L26.6213 29.6293ZM37.208 34.8447V20.5507H39.468V32.8745H46.6923V34.8447H37.208Z" fill="#242930"/>
</svg>
