<svg width="56" height="56" viewBox="0 0 56 56" fill="none" xmlns="http://www.w3.org/2000/svg">
<rect width="56" height="56" rx="15.68" fill="#EC0B43"/>
<path d="M15.6824 35.0379C14.5363 35.0379 13.5319 34.8318 12.6691 34.4198C11.8192 33.9948 11.1044 33.4346 10.525 32.7393C9.95835 32.031 9.52695 31.2455 9.23077 30.3827C8.94746 29.507 8.80581 28.612 8.80581 27.6977C8.80581 26.7834 8.94746 25.8884 9.23077 25.0127C9.52695 24.1371 9.95835 23.3515 10.525 22.6561C11.1044 21.9479 11.8192 21.3877 12.6691 20.9756C13.5319 20.5636 14.5363 20.3575 15.6824 20.3575C16.6225 20.3575 17.4273 20.4798 18.0969 20.7245C18.7795 20.9692 19.3461 21.2847 19.7968 21.671C20.2604 22.0445 20.6274 22.4437 20.8978 22.8686C21.1811 23.2936 21.3872 23.6992 21.5159 24.0856C21.6576 24.4719 21.7542 24.7874 21.8057 25.0321C21.8572 25.2638 21.8829 25.3797 21.8829 25.3797H19.6229C19.6229 25.3797 19.5972 25.2832 19.5457 25.09C19.507 24.884 19.4105 24.6328 19.2559 24.3367C19.1143 24.0405 18.8954 23.7507 18.5992 23.4674C18.3159 23.1713 17.936 22.9266 17.4595 22.7334C16.9959 22.5274 16.41 22.4244 15.7017 22.4244C14.942 22.4244 14.2723 22.5724 13.6928 22.8686C13.1262 23.1648 12.6498 23.564 12.2634 24.0662C11.8771 24.5685 11.5874 25.1351 11.3942 25.7661C11.2139 26.3971 11.1238 27.0409 11.1238 27.6977C11.1238 28.3545 11.2139 28.9983 11.3942 29.6293C11.5874 30.2475 11.8771 30.8141 12.2634 31.3292C12.6498 31.8314 13.1262 32.2306 13.6928 32.5268C14.2723 32.823 14.942 32.971 15.7017 32.971C16.41 32.971 16.9959 32.8745 17.4595 32.6813C17.936 32.4753 18.3159 32.2242 18.5992 31.928C18.8954 31.6318 19.1143 31.3356 19.2559 31.0394C19.4105 30.7432 19.507 30.4986 19.5457 30.3054C19.5972 30.0994 19.6229 29.9963 19.6229 29.9963H21.8829C21.8829 29.9963 21.8572 30.1187 21.8057 30.3633C21.7542 30.608 21.6576 30.9235 21.5159 31.3098C21.3872 31.6833 21.1811 32.0889 20.8978 32.5268C20.6274 32.9517 20.2604 33.3574 19.7968 33.7437C19.3461 34.1171 18.7795 34.4262 18.0969 34.6709C17.4273 34.9156 16.6225 35.0379 15.6824 35.0379ZM22.4683 34.8447L27.4519 20.5507H30.3494L35.3523 34.8447H32.9764L31.8753 31.6382H25.9452L24.8442 34.8447H22.4683ZM26.6213 29.6293H31.1993L28.9199 22.9652L26.6213 29.6293ZM37.208 34.8447V20.5507H39.468V32.8745H46.6923V34.8447H37.208Z" fill="#FDE6EC"/>
</svg>
