<svg width="567" height="93" viewBox="0 0 567 93" fill="none" xmlns="http://www.w3.org/2000/svg">
<g clip-path="url(#clip0_3_568)">
<path d="M32.0235 37.7809C31.8007 37.6984 31.6085 37.5497 31.4728 37.3548C31.3371 37.1599 31.2643 36.9282 31.2643 36.6908C31.2643 36.4533 31.3371 36.2216 31.4728 36.0267C31.6085 35.8318 31.8007 35.6831 32.0235 35.6006C38.7052 33.1811 50.4187 25.4722 50.7701 1.16014C50.7728 1.00897 50.7453 0.858777 50.6894 0.718301C50.6334 0.577825 50.55 0.449876 50.4441 0.341906C50.3382 0.233936 50.2118 0.148102 50.0723 0.0894035C49.9329 0.0307045 49.7831 0.000313371 49.6318 0L34.412 0C34.1198 0.000266705 33.8388 0.112576 33.627 0.313765C33.4152 0.514954 33.2888 0.789677 33.2738 1.08127C33.0166 6.10601 30.1773 27.304 0.81994 35.598C0.592957 35.6585 0.391248 35.7899 0.244215 35.973C0.0971824 36.156 0.0125121 36.3812 0.0025464 36.6157H0C0 36.6437 0 36.6691 0 36.6946C0 36.72 0 36.748 0 36.776C0.00996566 37.0105 0.094636 37.2357 0.241669 37.4187C0.388702 37.6018 0.590411 37.7332 0.817393 37.7937C30.1748 46.0877 33.014 67.2755 33.2712 72.3104C33.2862 72.602 33.4127 72.8767 33.6244 73.0779C33.8362 73.2791 34.1172 73.3914 34.4095 73.3917H49.6293C49.7806 73.3914 49.9303 73.361 50.0698 73.3023C50.2093 73.2436 50.3356 73.1578 50.4416 73.0498C50.5475 72.9418 50.6309 72.8139 50.6868 72.6734C50.7428 72.5329 50.7702 72.3827 50.7675 72.2316C50.4187 47.9067 38.7052 40.1979 32.0235 37.7809Z" fill="#FAFCFE"/>
<path d="M156.502 73.3662H140.24V48.0543C140.24 45.8307 139.741 44.2194 138.743 43.2204C138.298 42.7485 137.761 42.3724 137.165 42.1152C136.569 41.8579 135.927 41.725 135.278 41.7244C133.908 41.7244 132.453 42.3231 130.913 43.5206C129.371 44.719 128.187 46.3158 127.488 48.1382V73.3637H111.227V28.3878H125.863V35.0587C127.461 32.6061 129.7 30.7404 132.581 29.4615C135.462 28.1826 138.87 27.5415 142.807 27.5381C145.888 27.5381 148.328 28.0936 150.126 29.2045C151.825 30.2164 153.238 31.6435 154.233 33.3515C155.169 34.99 155.793 36.7877 156.074 38.6536C156.344 40.3511 156.487 42.0664 156.502 43.7852V73.3662Z" fill="#FAFCFE"/>
<path d="M174.901 73.3661L159.753 28.3877H176.442L184.489 60.6249L192.617 28.3877H207.765L192.617 73.3661H174.901Z" fill="#FAFCFE"/>
<path d="M232.585 74.221C228.648 74.221 225.139 73.6079 222.058 72.3816C219.156 71.2733 216.518 69.5693 214.315 67.3798C212.254 65.3045 210.639 62.8312 209.568 60.1111C208.482 57.3623 207.93 54.4315 207.944 51.4762C207.926 48.329 208.461 45.2032 209.525 42.2408C210.539 39.4008 212.144 36.8074 214.233 34.6312C216.417 32.395 219.039 30.6333 221.936 29.4564C224.992 28.1741 228.543 27.533 232.59 27.533C236.583 27.533 240.121 28.1741 243.204 29.4564C246.107 30.6271 248.741 32.3775 250.945 34.6007C253.018 36.7201 254.623 39.2499 255.658 42.0271C256.716 44.857 257.253 47.8549 257.242 50.8757C257.242 51.7331 257.199 52.6007 257.115 53.486C257.031 54.3714 256.929 55.1525 256.814 55.8369H225.239C225.409 58.2301 226.293 59.9542 227.892 61.0092C229.434 62.0477 231.253 62.5991 233.112 62.5916C234.853 62.5994 236.57 62.1884 238.118 61.3933C239.687 60.5979 240.729 59.4869 241.243 58.0605L255.021 61.9938C253.195 65.5827 250.385 68.5187 246.593 70.8017C242.8 73.0846 238.131 74.2244 232.585 74.221ZM239.776 46.0876C239.488 43.9217 238.688 42.212 237.377 40.9585C236.067 39.7051 234.384 39.0776 232.328 39.0759C230.276 39.0759 228.592 39.7034 227.278 40.9585C225.965 42.2137 225.166 43.9234 224.882 46.0876H239.776Z" fill="#FAFCFE"/>
<path d="M293.09 42.2332C290.205 42.1995 287.328 42.5416 284.532 43.2508C281.965 43.9293 280.054 45.0699 278.797 46.6727V73.3662H262.534V28.3878H277.425V36.9388C279.021 33.918 281.003 31.5951 283.373 29.9703C285.612 28.3852 288.289 27.5336 291.033 27.533C291.718 27.5116 292.404 27.5405 293.085 27.6195L293.09 42.2332Z" fill="#FAFCFE"/>
<path d="M315.43 73.3662C312.664 73.3977 309.927 72.7982 307.429 71.6133C305.043 70.4762 302.927 68.8438 301.223 66.8251C299.462 64.7135 298.112 62.2913 297.243 59.6836C296.279 56.8149 295.801 53.8052 295.83 50.779C295.795 47.6068 296.311 44.4525 297.358 41.4572C298.305 38.7467 299.776 36.2484 301.687 34.1045C303.535 32.0531 305.79 30.4071 308.307 29.2706C310.972 28.0822 313.863 27.4842 316.782 27.5177C320.034 27.5177 322.887 28.1588 325.34 29.4411C327.778 30.7086 329.799 32.6521 331.159 35.0383V28.3878H345.291V69.2624C345.291 72.7955 344.635 75.9875 343.323 78.8387C342.039 81.6489 340.137 84.1335 337.759 86.1074C335.198 88.1916 332.266 89.773 329.116 90.7683C325.747 91.8776 322.012 92.4331 317.912 92.4348C313.12 92.4348 308.955 91.6936 305.417 90.2112C301.876 88.7297 298.671 86.548 295.995 83.7973L304.554 74.9054C306.313 76.5134 308.321 77.8269 310.5 78.7955C312.824 79.8524 315.351 80.3923 317.905 80.3779C319.338 80.3842 320.764 80.1828 322.139 79.78C323.452 79.401 324.668 78.7441 325.704 77.8541C326.778 76.9071 327.614 75.7209 328.144 74.3915C328.741 72.9668 329.041 71.2571 329.043 69.2624V66.3545C327.8 68.6822 325.834 70.5431 323.441 71.6565C320.931 72.8151 318.194 73.3992 315.43 73.3662V73.3662ZM321.251 60.5512C322.774 60.5884 324.276 60.1885 325.579 59.3987C326.803 58.6287 327.959 57.4736 329.045 55.9335V47.8838C328.336 45.958 327.101 44.2693 325.48 43.0091C323.918 41.8134 322.28 41.2155 320.566 41.2155C319.444 41.2098 318.339 41.4891 317.355 42.0271C316.357 42.5681 315.471 43.2933 314.745 44.1642C313.975 45.0989 313.394 46.1736 313.033 47.3291C312.629 48.586 312.427 49.899 312.435 51.2192C312.435 54.0127 313.262 56.2643 314.915 57.974C316.569 59.6836 318.68 60.5427 321.251 60.5512Z" fill="#FAFCFE"/>
<path d="M103.91 41.3071C102.88 38.5254 101.276 35.991 99.2022 33.8679C96.9968 31.6526 94.3617 29.9107 91.4586 28.7491C88.3775 27.4668 84.8397 26.8257 80.8452 26.8257C76.7931 26.8257 73.2408 27.4668 70.1886 28.7491C67.3006 29.9212 64.6809 31.667 62.4883 33.8807C60.4133 36.0024 58.809 38.5372 57.78 41.3198C55.6682 47.0311 55.6682 53.3083 57.78 59.0196C58.809 61.8022 60.4133 64.337 62.4883 66.4588C64.6822 68.6708 67.3016 70.4164 70.1886 71.5904C73.2442 72.8726 76.7965 73.5138 80.8452 73.5138C84.838 73.5138 88.3758 72.8726 91.4586 71.5904C94.3619 70.4231 96.9967 68.677 99.2022 66.4588C101.276 64.3357 102.88 61.8013 103.91 59.0196C106.022 53.3083 106.022 47.0311 103.91 41.3198V41.3071ZM80.8452 60.7242C78.7528 60.7257 76.707 60.1072 74.9665 58.9468C73.226 57.7864 71.869 56.1364 71.0672 54.2054C70.2655 52.2744 70.0549 50.1492 70.4622 48.0986C70.8695 46.048 71.8763 44.1642 73.3553 42.6854C74.8343 41.2066 76.7191 40.1993 78.7712 39.7909C80.8233 39.3825 82.9505 39.5913 84.8837 40.391C86.817 41.1907 88.4695 42.5453 89.6321 44.2834C90.7948 46.0215 91.4153 48.0651 91.4153 50.1557C91.4153 52.9573 90.3019 55.6443 88.3199 57.6261C86.3378 59.6078 83.6493 60.7222 80.8452 60.7242V60.7242Z" fill="#FAFCFE"/>
<path fill-rule="evenodd" clip-rule="evenodd" d="M375.68 74.221C371.63 74.221 368.078 73.5799 365.026 72.2976C362.137 71.1253 359.517 69.3795 357.323 67.166C355.25 65.043 353.646 62.5086 352.615 59.7269C350.503 54.0156 350.503 47.7384 352.615 42.0271C353.647 39.2499 355.251 36.72 357.323 34.6006C359.517 32.3872 362.137 30.6414 365.026 29.469C368.082 28.1868 371.633 27.5457 375.68 27.5457C379.673 27.5457 383.211 28.1868 386.293 29.469C389.198 30.6347 391.833 32.381 394.037 34.6006C396.11 36.7237 397.714 39.2581 398.745 42.0398C400.857 47.7511 400.857 54.0283 398.745 59.7396C397.713 62.5168 396.109 65.0467 394.037 67.166C391.831 69.3863 389.194 71.1326 386.288 72.2976C383.211 73.5799 379.674 74.221 375.68 74.221ZM377.811 40.5218C382.632 41.5071 386.258 45.7682 386.258 50.8756C386.258 55.4123 383.397 59.2811 379.379 60.7797C378.551 61.0887 377.673 61.297 376.761 61.3895C376.406 61.4256 376.045 61.4441 375.68 61.4441C375.68 61.4441 375.68 61.4441 375.68 61.4441C374.949 61.4441 374.236 61.3701 373.548 61.2294C368.728 60.2439 365.102 55.9828 365.102 50.8756C365.102 46.257 368.067 42.3303 372.199 40.8925C373.289 40.5132 374.46 40.3071 375.68 40.3071M375.68 40.3071C376.41 40.3071 377.123 40.3811 377.811 40.5218Z" fill="#FAFCFE"/>
<rect width="137.468" height="91.4937" transform="translate(429.835 -0.145508)" fill="#FAFCFE"/>
<path d="M469.298 63.0626C466.561 63.0626 464.162 62.5706 462.102 61.5865C460.072 60.5716 458.365 59.2339 456.981 57.5733C455.628 55.8819 454.598 54.006 453.891 51.9455C453.214 49.8544 452.876 47.7171 452.876 45.5336C452.876 43.3502 453.214 41.2129 453.891 39.1217C454.598 37.0305 455.628 35.1546 456.981 33.494C458.365 31.8026 460.072 30.4649 462.102 29.4808C464.162 28.4967 466.561 28.0047 469.298 28.0047C471.543 28.0047 473.465 28.2968 475.064 28.8811C476.694 29.4654 478.047 30.2188 479.123 31.1414C480.23 32.0332 481.107 32.9866 481.753 34.0014C482.429 35.0162 482.921 35.9849 483.229 36.9075C483.567 37.8301 483.798 38.5835 483.921 39.1678C484.044 39.7214 484.105 39.9982 484.105 39.9982H478.708C478.708 39.9982 478.647 39.7675 478.524 39.3062C478.431 38.8142 478.201 38.2145 477.832 37.5072C477.493 36.7999 476.971 36.108 476.263 35.4314C475.587 34.7241 474.68 34.1398 473.542 33.6785C472.435 33.1865 471.035 32.9404 469.344 32.9404C467.53 32.9404 465.931 33.2941 464.547 34.0014C463.194 34.7087 462.056 35.662 461.133 36.8614C460.211 38.0607 459.519 39.4139 459.057 40.9207C458.627 42.4276 458.411 43.9652 458.411 45.5336C458.411 47.102 458.627 48.6396 459.057 50.1465C459.519 51.6226 460.211 52.9758 461.133 54.2059C462.056 55.4052 463.194 56.3585 464.547 57.0659C465.931 57.7732 467.53 58.1268 469.344 58.1268C471.035 58.1268 472.435 57.8962 473.542 57.4349C474.68 56.9428 475.587 56.3432 476.263 55.6359C476.971 54.9285 477.493 54.2212 477.832 53.5139C478.201 52.8066 478.431 52.2223 478.524 51.761C478.647 51.269 478.708 51.023 478.708 51.023H484.105C484.105 51.023 484.044 51.3151 483.921 51.8994C483.798 52.4837 483.567 53.2372 483.229 54.1597C482.921 55.0516 482.429 56.0203 481.753 57.0659C481.107 58.0807 480.23 59.0494 479.123 59.972C478.047 60.8638 476.694 61.6019 475.064 62.1862C473.465 62.7705 471.543 63.0626 469.298 63.0626ZM485.503 62.6013L497.404 28.4659H504.324L516.271 62.6013H510.597L507.968 54.9439H493.806L491.177 62.6013H485.503ZM495.421 50.1465H506.353L500.91 34.2321L495.421 50.1465ZM520.703 62.6013V28.4659H526.1V57.8962H543.352V62.6013H520.703Z" fill="#242930"/>
</g>
<defs>
<clipPath id="clip0_3_568">
<rect width="567" height="93" fill="white"/>
</clipPath>
</defs>
</svg>
