<svg width="101" height="17" viewBox="0 0 101 17" fill="none" xmlns="http://www.w3.org/2000/svg">
<g clip-path="url(#clip0_3_541)">
<path d="M5.70436 6.72994C5.66467 6.71524 5.63044 6.68875 5.60626 6.65403C5.58209 6.61932 5.56913 6.57804 5.56913 6.53574C5.56913 6.49345 5.58209 6.45217 5.60626 6.41746C5.63044 6.38274 5.66467 6.35625 5.70436 6.34155C6.89458 5.91056 8.9811 4.53738 9.0437 0.206657C9.04418 0.179729 9.03929 0.152974 9.02932 0.127951C9.01936 0.102928 9.00451 0.0801367 8.98564 0.0609039C8.96677 0.0416712 8.94425 0.0263816 8.91941 0.0159255C8.89457 0.0054694 8.8679 5.5821e-05 8.84094 0L6.12983 0C6.07777 4.75083e-05 6.02772 0.0200533 5.98999 0.0558911C5.95227 0.091729 5.92975 0.140666 5.92707 0.192608C5.88126 1.08767 5.37551 4.86368 0.146056 6.3411C0.105624 6.35187 0.0696933 6.37527 0.0435022 6.40788C0.0173112 6.44049 0.00222878 6.4806 0.000453591 6.52238H0C0 6.52736 0 6.53189 0 6.53642C0 6.54096 0 6.54594 0 6.55093C0.00177519 6.5927 0.0168576 6.63281 0.0430486 6.66542C0.0692397 6.69803 0.10517 6.72143 0.145603 6.7322C5.37505 8.20962 5.88081 11.9838 5.92662 12.8807C5.92929 12.9326 5.95181 12.9816 5.98954 13.0174C6.02727 13.0532 6.07732 13.0733 6.12938 13.0733H8.84049C8.86744 13.0732 8.89412 13.0678 8.91896 13.0574C8.9438 13.0469 8.96631 13.0316 8.98518 13.0124C9.00405 12.9932 9.0189 12.9704 9.02887 12.9453C9.03884 12.9203 9.04372 12.8936 9.04324 12.8666C8.9811 8.53365 6.89458 7.16047 5.70436 6.72994Z" fill="#242930"/>
<path d="M27.8777 13.0687H24.9811V8.55983C24.9811 8.16374 24.8922 7.87672 24.7144 7.69876C24.635 7.61471 24.5394 7.54772 24.4332 7.5019C24.3271 7.45608 24.2127 7.43239 24.097 7.43229C23.853 7.43229 23.5938 7.53894 23.3196 7.75224C23.045 7.96572 22.834 8.25016 22.7095 8.57479V13.0682H19.8129V5.05664H22.4201V6.24492C22.7047 5.80804 23.1035 5.47569 23.6167 5.24789C24.1298 5.02008 24.7371 4.90588 25.4383 4.90527C25.9871 4.90527 26.4217 5.00422 26.7419 5.20212C27.0446 5.38236 27.2963 5.63657 27.4736 5.94082C27.6404 6.23269 27.7516 6.55292 27.8015 6.88528C27.8496 7.18766 27.8751 7.49321 27.8777 7.79937V13.0687Z" fill="#242930"/>
<path d="M31.1553 13.0687L28.4569 5.05664H31.4297L32.8631 10.7991L34.311 5.05664H37.0094L34.311 13.0687H31.1553Z" fill="#242930"/>
<path d="M41.4305 13.2211C40.7292 13.2211 40.1042 13.1119 39.5553 12.8935C39.0383 12.696 38.5684 12.3925 38.176 12.0025C37.809 11.6328 37.5213 11.1922 37.3305 10.7077C37.1369 10.2181 37.0387 9.696 37.0411 9.16955C37.038 8.60895 37.1333 8.05214 37.3228 7.52446C37.5035 7.01857 37.7893 6.55661 38.1615 6.16895C38.5505 5.77063 39.0176 5.45681 39.5336 5.24716C40.0779 5.01875 40.7105 4.90454 41.4314 4.90454C42.1426 4.90454 42.7728 5.01875 43.322 5.24716C43.8392 5.45569 44.3084 5.76751 44.7009 6.16352C45.0701 6.54105 45.3562 6.99169 45.5405 7.48639C45.7289 7.99049 45.8245 8.52449 45.8226 9.0626C45.8226 9.21533 45.8149 9.36987 45.7999 9.52758C45.785 9.68529 45.7668 9.82442 45.7464 9.94633H40.1219C40.1521 10.3726 40.3097 10.6797 40.5945 10.8677C40.8692 11.0527 41.1932 11.1509 41.5244 11.1496C41.8345 11.1509 42.1403 11.0777 42.4161 10.9361C42.6956 10.7944 42.8811 10.5965 42.9727 10.3424L45.4271 11.0431C45.1017 11.6824 44.6012 12.2054 43.9257 12.612C43.2501 13.0187 42.4184 13.2217 41.4305 13.2211ZM42.7114 8.20969C42.66 7.82387 42.5176 7.51932 42.2841 7.29605C42.0507 7.07277 41.7509 6.96099 41.3847 6.96068C41.0191 6.96068 40.7193 7.07247 40.4852 7.29605C40.2512 7.51962 40.1089 7.82417 40.0584 8.20969H42.7114Z" fill="#242930"/>
<path d="M52.2084 7.52309C51.6945 7.51709 51.182 7.57803 50.6838 7.70437C50.2266 7.82522 49.8861 8.02841 49.6623 8.31392V13.0688H46.7653V5.05681H49.4179V6.58C49.7021 6.0419 50.0553 5.62814 50.4774 5.3387C50.8763 5.05634 51.353 4.90465 51.8419 4.90454C51.9639 4.90072 52.0861 4.90587 52.2074 4.91995L52.2084 7.52309Z" fill="#242930"/>
<path d="M56.1876 13.0689C55.695 13.0745 55.2076 12.9677 54.7625 12.7566C54.3375 12.5541 53.9606 12.2633 53.6571 11.9037C53.3434 11.5276 53.1029 11.0961 52.9481 10.6316C52.7763 10.1206 52.6912 9.58446 52.6963 9.04541C52.69 8.48033 52.7821 7.91845 52.9685 7.3849C53.1372 6.90207 53.3992 6.45706 53.7396 6.07517C54.0689 5.70974 54.4705 5.41654 54.9189 5.2141C55.3937 5.00241 55.9087 4.89588 56.4285 4.90185C57.0079 4.90185 57.5161 5.01605 57.953 5.24446C58.3873 5.47025 58.7472 5.81644 58.9895 6.24149V5.05684H61.5069V12.3379C61.5069 12.9672 61.39 13.5358 61.1563 14.0437C60.9276 14.5443 60.5888 14.9869 60.1652 15.3385C59.709 15.7097 59.1867 15.9914 58.6257 16.1687C58.0254 16.3663 57.3602 16.4653 56.6299 16.4656C55.7762 16.4656 55.0343 16.3335 54.4041 16.0695C53.7733 15.8056 53.2025 15.4169 52.7258 14.927L54.2504 13.3431C54.5638 13.6295 54.9214 13.8635 55.3095 14.036C55.7236 14.2243 56.1736 14.3204 56.6285 14.3179C56.8838 14.319 57.1379 14.2831 57.3828 14.2114C57.6167 14.1438 57.8333 14.0268 58.0179 13.8683C58.2091 13.6996 58.358 13.4883 58.4524 13.2515C58.5589 12.9977 58.6122 12.6932 58.6125 12.3379V11.8199C58.3912 12.2345 58.041 12.566 57.6146 12.7643C57.1676 12.9707 56.6801 13.0747 56.1876 13.0689V13.0689ZM57.2245 10.7861C57.4959 10.7928 57.7635 10.7215 57.9956 10.5808C58.2137 10.4437 58.4195 10.2379 58.613 9.96358V8.52967C58.4867 8.18663 58.2667 7.88582 57.978 7.66135C57.6998 7.44835 57.4079 7.34185 57.1025 7.34185C56.9027 7.34084 56.7059 7.39059 56.5306 7.48642C56.3529 7.58278 56.1951 7.71196 56.0656 7.8671C55.9285 8.03359 55.825 8.22504 55.7608 8.43087C55.6888 8.65476 55.6528 8.88865 55.6542 9.12381C55.6542 9.62142 55.8015 10.0225 56.096 10.327C56.3905 10.6316 56.7667 10.7846 57.2245 10.7861Z" fill="#242930"/>
<path d="M66.9201 10.9451C67.9607 10.9451 68.8043 10.1022 68.8043 9.0625C68.8043 8.02279 67.9607 7.17993 66.9201 7.17993C65.8795 7.17993 65.0359 8.02279 65.0359 9.0625C65.0359 10.1022 65.8795 10.9451 66.9201 10.9451Z" fill="#EC0B43"/>
<path d="M18.5096 7.35815C18.326 6.86264 18.0403 6.41119 17.6709 6.03301C17.2781 5.63839 16.8087 5.32811 16.2916 5.12118C15.7427 4.89277 15.1125 4.77856 14.401 4.77856C13.6792 4.77856 13.0464 4.89277 12.5027 5.12118C11.9883 5.32997 11.5216 5.64095 11.1311 6.03527C10.7614 6.41322 10.4757 6.86474 10.2924 7.36041C9.91621 8.37777 9.91621 9.49593 10.2924 10.5133C10.4757 11.009 10.7614 11.4605 11.1311 11.8384C11.5219 12.2325 11.9885 12.5434 12.5027 12.7525C13.047 12.9809 13.6798 13.0951 14.401 13.0951C15.1122 13.0951 15.7424 12.9809 16.2916 12.7525C16.8087 12.5446 17.2781 12.2336 17.6709 11.8384C18.0403 11.4602 18.326 11.0088 18.5096 10.5133C18.8858 9.49593 18.8858 8.37777 18.5096 7.36041V7.35815ZM14.401 10.8169C14.0283 10.8172 13.6639 10.707 13.3538 10.5003C13.0438 10.2936 12.8021 9.9997 12.6592 9.65573C12.5164 9.31176 12.4789 8.93319 12.5515 8.56792C12.624 8.20265 12.8034 7.86708 13.0668 7.60366C13.3303 7.34024 13.666 7.16081 14.0316 7.08806C14.3971 7.01531 14.776 7.05251 15.1204 7.19496C15.4648 7.33741 15.7591 7.5787 15.9662 7.88832C16.1733 8.19793 16.2839 8.56196 16.2839 8.93436C16.2839 9.43341 16.0855 9.91204 15.7325 10.2651C15.3794 10.6181 14.9005 10.8166 14.401 10.8169V10.8169Z" fill="#242930"/>
<path fill-rule="evenodd" clip-rule="evenodd" d="M66.92 13.221C66.1985 13.221 65.5659 13.1068 65.0222 12.8784C64.5077 12.6696 64.0409 12.3586 63.6501 11.9643C63.2808 11.5862 62.9951 11.1347 62.8114 10.6392C62.4353 9.62184 62.4353 8.50368 62.8114 7.48632C62.9953 6.99162 63.281 6.54096 63.6501 6.16345C64.0409 5.76916 64.5077 5.45819 65.0222 5.24935C65.5665 5.02094 66.1991 4.90674 66.92 4.90674C67.6313 4.90674 68.2615 5.02094 68.8106 5.24935C69.3279 5.457 69.7973 5.76806 70.19 6.16345C70.5593 6.54163 70.845 6.99308 71.0287 7.48859C71.4048 8.50595 71.4048 9.6241 71.0287 10.6415C70.8448 11.1362 70.559 11.5868 70.19 11.9643C69.797 12.3598 69.3273 12.6709 68.8097 12.8784C68.2615 13.1068 67.6316 13.221 66.92 13.221ZM67.2997 7.21819C68.1584 7.3937 68.8043 8.15273 68.8043 9.06251C68.8043 9.87063 68.2946 10.5598 67.579 10.8267C67.4314 10.8818 67.2751 10.9189 67.1126 10.9354C67.0493 10.9418 66.9851 10.9451 66.9201 10.9451C66.92 10.9451 66.92 10.9451 66.92 10.9451C66.7899 10.9451 66.6629 10.9319 66.5402 10.9068C65.6816 10.7313 65.0358 9.97226 65.0358 9.06251C65.0358 8.2398 65.564 7.54034 66.3 7.28421C66.4942 7.21665 66.7028 7.17994 66.92 7.17994M66.9201 7.17994C67.0501 7.17995 67.1771 7.19312 67.2997 7.21819Z" fill="#242930"/>
<rect width="25.3868" height="15.9662" transform="translate(76.5668 -0.0541992)" fill="#EC0B43"/>
<path d="M83.5963 11.0111C83.1088 11.0111 82.6815 10.9235 82.3145 10.7482C81.9529 10.5674 81.6489 10.3291 81.4024 10.0333C81.1614 9.73202 80.9779 9.39786 80.8519 9.03084C80.7314 8.65833 80.6711 8.27761 80.6711 7.88868C80.6711 7.49974 80.7314 7.11902 80.8519 6.74652C80.9779 6.37402 81.1614 6.03986 81.4024 5.74405C81.6489 5.44276 81.9529 5.20447 82.3145 5.02918C82.6815 4.85388 83.1088 4.76623 83.5963 4.76623C83.9962 4.76623 84.3386 4.81827 84.6235 4.92236C84.9138 5.02644 85.1548 5.16065 85.3466 5.32499C85.5438 5.48385 85.6999 5.65366 85.8149 5.83444C85.9354 6.01521 86.0231 6.18777 86.0779 6.35211C86.1381 6.51645 86.1792 6.65066 86.2011 6.75474C86.223 6.85334 86.234 6.90264 86.234 6.90264H85.2726C85.2726 6.90264 85.2616 6.86156 85.2397 6.77939C85.2233 6.69174 85.1822 6.58492 85.1165 6.45893C85.0562 6.33293 84.9631 6.20968 84.8371 6.08916C84.7166 5.96317 84.555 5.85909 84.3523 5.77692C84.1551 5.68927 83.9058 5.64545 83.6046 5.64545C83.2814 5.64545 82.9965 5.70844 82.75 5.83444C82.509 5.96043 82.3063 6.13025 82.1419 6.34389C81.9776 6.55753 81.8543 6.79856 81.7722 7.06698C81.6955 7.3354 81.6571 7.6093 81.6571 7.88868C81.6571 8.16806 81.6955 8.44195 81.7722 8.71038C81.8543 8.97332 81.9776 9.21435 82.1419 9.43347C82.3063 9.64711 82.509 9.81693 82.75 9.94292C82.9965 10.0689 83.2814 10.1319 83.6046 10.1319C83.9058 10.1319 84.1551 10.0908 84.3523 10.0087C84.555 9.92101 84.7166 9.81419 84.8371 9.68819C84.9631 9.5622 85.0562 9.43621 85.1165 9.31021C85.1822 9.18422 85.2233 9.08014 85.2397 8.99797C85.2616 8.91032 85.2726 8.8665 85.2726 8.8665H86.234C86.234 8.8665 86.223 8.91854 86.2011 9.02262C86.1792 9.1267 86.1381 9.26091 86.0779 9.42525C86.0231 9.58411 85.9354 9.75667 85.8149 9.94292C85.6999 10.1237 85.5438 10.2962 85.3466 10.4606C85.1548 10.6194 84.9138 10.7509 84.6235 10.855C84.3386 10.9591 83.9962 11.0111 83.5963 11.0111ZM86.483 10.929L88.603 4.8484H89.8355L91.9637 10.929H90.953L90.4847 9.56494H87.9621L87.4937 10.929H86.483ZM88.2496 8.71038H90.1971L89.2275 5.87552L88.2496 8.71038ZM92.7531 10.929V4.8484H93.7145V10.0908H96.7876V10.929H92.7531Z" fill="#FDE6EC"/>
</g>
<defs>
<clipPath id="clip0_3_541">
<rect width="101" height="16.5" fill="white"/>
</clipPath>
</defs>
</svg>
