<svg width="934" height="934" viewBox="0 0 934 934" fill="none" xmlns="http://www.w3.org/2000/svg">
<path d="M249.83 595.573C230.126 595.573 212.857 592.031 198.024 584.946C183.412 577.64 171.124 568.009 161.161 556.054C151.42 543.877 144.003 530.372 138.911 515.538C134.04 500.483 131.605 485.096 131.605 469.377C131.605 453.658 134.04 438.271 138.911 423.216C144.003 408.161 151.42 394.656 161.161 382.7C171.124 370.524 183.412 360.893 198.024 353.808C212.857 346.724 230.126 343.181 249.83 343.181C265.992 343.181 279.83 345.284 291.342 349.491C303.076 353.698 312.818 359.122 320.567 365.764C328.537 372.184 334.847 379.047 339.496 386.354C344.367 393.66 347.909 400.634 350.123 407.275C352.558 413.917 354.219 419.342 355.104 423.548C355.99 427.533 356.433 429.526 356.433 429.526H317.578C317.578 429.526 317.135 427.865 316.249 424.544C315.585 421.002 313.925 416.685 311.268 411.593C308.833 406.501 305.069 401.519 299.977 396.648C295.106 391.556 288.575 387.35 280.383 384.029C272.413 380.486 262.339 378.715 250.163 378.715C237.1 378.715 225.588 381.261 215.625 386.354C205.883 391.446 197.692 398.309 191.05 406.943C184.408 415.578 179.426 425.319 176.105 436.168C173.006 447.016 171.456 458.086 171.456 469.377C171.456 480.668 173.006 491.738 176.105 502.587C179.426 513.214 184.408 522.955 191.05 531.811C197.692 540.445 205.883 547.309 215.625 552.401C225.588 557.493 237.1 560.039 250.163 560.039C262.339 560.039 272.413 558.379 280.383 555.058C288.575 551.515 295.106 547.198 299.977 542.106C305.069 537.014 308.833 531.922 311.268 526.83C313.925 521.737 315.585 517.531 316.249 514.21C317.135 510.668 317.578 508.896 317.578 508.896H356.433C356.433 508.896 355.99 511 355.104 515.206C354.219 519.413 352.558 524.837 350.123 531.479C347.909 537.899 344.367 544.873 339.496 552.401C334.847 559.707 328.537 566.681 320.567 573.323C312.818 579.743 303.076 585.057 291.342 589.263C279.83 593.47 265.992 595.573 249.83 595.573ZM366.497 592.252L452.177 346.502H501.991L588.004 592.252H547.156L528.227 537.124H426.274L407.344 592.252H366.497ZM437.897 502.587H516.604L477.416 388.014L437.897 502.587ZM619.908 592.252V346.502H658.763V558.379H782.967V592.252H619.908Z" fill="#242930"/>
</svg>
